# xmcd
#
# Track frame offsets: 
#        150
#        15753
#        31355
#        46958
#        62022
#
# Disc length: 840 seconds
#
# Revision: 0
# Processed by: cddbd v1.5.2PL0 Copyright (c) Steve Scherf et al.
# Submitted via: ExactAudioCopy v0.99pb4
#
DISCID=30034605
DTITLE=Pitbull - Ay Chico (Lengua Afuera)
DYEAR=2006
DGENRE=Hip-Hop
TTITLE0=Ay Chico (Lengua Afuera) (Radio)
TTITLE1=Ay Chico (Lengua Afuera)
TTITLE2=Ay Chico (Lengua Afuera) (Instrumental)
TTITLE3=Ay Chico (Lengua Afuera) (Acapella)
TTITLE4=Ay Chico (Lengua Afuera) (Call Out)
EXTD=
EXTT0=
EXTT1=
EXTT2=
EXTT3=
EXTT4=
PLAYORDER=
